<?xml version="1.0" encoding="utf-8"?>
<!-- Generator: Adobe Illustrator 19.2.1, SVG Export Plug-In . SVG Version: 6.00 Build 0)  -->
<svg version="1.1" id="layer" xmlns="http://www.w3.org/2000/svg" xmlns:xlink="http://www.w3.org/1999/xlink" x="0px" y="0px"
	 viewBox="0 0 652 652" style="enable-background:new 0 0 652 652;" xml:space="preserve">
<style type="text/css">
	.st0{clip-path:url(#SVGID_2_);fill:url(#SVGID_3_);}
	.st1{fill:#58595B;}
</style>
<g>
	<defs>
		<path id="SVGID_1_" d="M674.3,164.8v158.1c0,11.1,9.2,20,19.6,20c11,0,19.6-8.9,19.6-20V164.8c0-11.1-8.9-20-19.6-20
			C682.8,144.8,674.3,153.7,674.3,164.8 M-34.9,279c0-17.8,16.3-27.8,38.8-27.8c16.6,0,28.5,2.3,44.7,6.3v41
			C45,301.5,31.3,310,5.7,310C-20.4,310-34.9,298.9-34.9,279 M-46.7,152.6c-9.9,4.5-12.9,11.8-12.9,18.1c0,11.4,10.7,20,27,14.7
			c10.3-3.7,25.1-8.1,40.2-8.1c28.8,0,41.1,10.7,41.1,35.8v12.2c-17.1-4-29.6-6.2-47-6.2c-50,0-73.4,27.2-74.9,58v6.8
			c1.6,34.5,26.7,60.5,75.7,60.5c38.4,0,66.5-13.7,76.8-20.7c5.6-3.8,7-7.8,7-14.4v-96.1c0-49.9-29.2-71.6-76.5-71.6
			C-12.7,141.5-35.9,147.4-46.7,152.6 M335.6,279c0-17.8,16.2-27.8,38.8-27.8c16.7,0,28.5,2.3,44.7,6.3v41
			c-3.7,3-17.3,11.5-42.8,11.5C350.1,310,335.6,298.9,335.6,279 M323.8,152.6c-10,4.5-12.9,11.8-12.9,18.1c0,11.4,10.7,20,27,14.7
			c10.3-3.7,25.1-8.1,40.2-8.1c28.7,0,41,10.7,41,35.8v12.2c-16.9-4-29.6-6.2-46.9-6.2c-51.8,0-75,29.2-75,61.3
			c0,36.3,25.1,64,75.7,64c38.4,0,66.5-13.7,76.9-20.7c5.5-3.8,7-7.8,7-14.4v-96.1c0-49.9-29.2-71.6-76.5-71.6
			C357.8,141.5,334.5,147.4,323.8,152.6 M490.8,161.8c-5.6,3.8-7.9,7.5-7.9,15.2v145.2c0,11.1,9.2,20,19.7,20c11,0,19.6-8.9,19.6-20
			V189.5c8.4-5.2,25.8-10.4,43.9-10.4c23,0,42.9,12.6,42.9,42.1v100.9c0,11.1,9.2,20,19.5,20c11.5,0,19.7-8.9,19.7-20V219.4
			c0-49.9-27.5-77.9-81-77.9C528.5,141.5,501.4,153.7,490.8,161.8 M148.7,263.4c-1-11.4-0.7-33.2,0-43.2c1.5-26.9,14.8-41,42.9-41
			c19.2,0,37.7,6.6,45.3,11.5v102.6c-7.3,5.6-26.5,13.3-42.4,13.3C166.1,306.6,150.9,291.8,148.7,263.4 M237,96.8v55.4
			c-12.1-5.5-30.5-10.6-48.3-10.6c-47.6,0-74.9,28.4-79.1,74.2c-1.1,13.3-1.1,39.5,0,52.4c4.1,45.5,34.3,76.2,84.2,76.2
			c35.9,0,65.8-15.9,75.4-23c6-4,7.1-8.1,7.1-14.7V96.8c0-11-8.6-19.9-19.6-19.9C246,76.8,237,85.7,237,96.8 M671.8,96.8
			c0,12.2,9.2,22.6,22.2,22.6c12.1,0,21.8-10.4,21.8-22.6c0-12.2-9.7-21.8-21.8-21.8C681,75,671.8,84.6,671.8,96.8"/>
	</defs>
	<clipPath id="SVGID_2_">
		<use xlink:href="#SVGID_1_"  style="overflow:visible;"/>
	</clipPath>
	
		<linearGradient id="SVGID_3_" gradientUnits="userSpaceOnUse" x1="-2.5428" y1="650.8428" x2="6.0128" y2="650.8428" gradientTransform="matrix(171.879 -15.038 15.038 171.879 -9793.417 -111627.875)">
		<stop  offset="0" style="stop-color:#00B16B"/>
		<stop  offset="1.887928e-002" style="stop-color:#00AD70"/>
		<stop  offset="0.241" style="stop-color:#007FA3"/>
		<stop  offset="0.35" style="stop-color:#006DB7"/>
		<stop  offset="0.4016" style="stop-color:#225CAD"/>
		<stop  offset="0.4817" style="stop-color:#5145A0"/>
		<stop  offset="0.5527" style="stop-color:#733597"/>
		<stop  offset="0.6112" style="stop-color:#872B91"/>
		<stop  offset="0.65" style="stop-color:#8F278F"/>
		<stop  offset="0.7181" style="stop-color:#A63076"/>
		<stop  offset="0.8624" style="stop-color:#E04735"/>
		<stop  offset="0.9" style="stop-color:#F04D23"/>
		<stop  offset="1" style="stop-color:#F04D23"/>
	</linearGradient>
	<polygon class="st0" points="-67.2,412.9 739.1,342.3 709.8,6.5 -96.6,77.1 	"/>
</g>
<g>
	<path class="st1" d="M597.6,422H44.9c-2,0-3.6-1.6-3.6-3.6c0-2,1.6-3.6,3.6-3.6h552.7c2.1,0,3.6,1.6,3.6,3.6
		C601.2,420.4,599.7,422,597.6,422"/>
	<path class="st1" d="M129.8,538v27.9c0,2.2-0.8,4.1-2.4,5.8c-1.5,1.6-3.4,2.5-5.6,2.5c-2.1,0-4-0.8-5.6-2.5
		c-1.5-1.7-2.3-3.6-2.3-5.8v-86.1c0-3.2,1-5.9,3-8.2c2.1-2.3,4.9-3.4,8.7-3.4h30.1c4.8,0,9.3,0.8,13.5,2.4c4.3,1.6,8,3.9,11.3,6.9
		c3.3,3,5.7,6.6,7.6,10.9s2.7,9.1,2.7,14.5c0,5.5-0.9,10.4-2.7,14.8c-1.8,4.3-4.4,8-7.6,11c-3.3,3-7.1,5.3-11.5,6.9
		c-4.4,1.6-9.3,2.4-14.6,2.4H129.8 M154.2,522.1c7.3,0,12.6-1.8,15.7-5.3c3.3-3.5,4.8-8.1,4.8-13.7c0-5.7-1.5-10.3-4.8-13.8
		c-3.2-3.5-8.3-5.2-15.1-5.2h-25v38.1H154.2z"/>
	<path class="st1" d="M240,492.8c4.8,0,9.2,0.7,13.3,2.2c4.1,1.4,7.7,3.5,10.8,6.1c3,2.6,5.5,5.8,7.4,9.5c1.8,3.7,2.9,7.8,3.2,12.3
		c0.1,1.5,0.2,3.2,0.3,5c0.1,1.8,0.1,3.7,0.1,5.6c0,1.9,0,3.8-0.1,5.7c-0.1,1.9-0.2,3.6-0.3,5.1c-0.3,4.4-1.4,8.5-3.2,12.2
		c-1.9,3.7-4.4,7-7.4,9.7c-3.1,2.7-6.7,4.9-10.8,6.4c-4.1,1.6-8.6,2.3-13.3,2.3c-4.7,0-9.2-0.8-13.3-2.3c-4.1-1.5-7.6-3.7-10.7-6.4
		c-3.1-2.7-5.6-6-7.4-9.7c-1.9-3.7-3-7.8-3.3-12.2c-0.2-1.5-0.3-3.2-0.3-5.1c-0.1-1.9-0.1-3.8-0.1-5.7c0-1.9,0-3.8,0.1-5.6
		c0-1.8,0.1-3.5,0.3-5c0.3-4.5,1.4-8.6,3.3-12.3c1.9-3.7,4.4-6.9,7.4-9.5c3.1-2.6,6.6-4.7,10.7-6.1
		C230.8,493.5,235.3,492.8,240,492.8 M239.9,508c-5.6,0-10,1.6-13.3,4.7c-3.3,3.1-5,7.2-5.5,12.2c-0.1,1.2-0.2,2.5-0.2,4
		c-0.1,1.5-0.1,3.1-0.1,4.6c0,1.6,0,3.2,0.1,4.7c0,1.5,0.1,2.9,0.2,4c0.5,5.3,2.4,9.5,5.7,12.7c3.3,3.1,7.6,4.7,13,4.7
		c5.4,0,9.8-1.6,13.1-4.7c3.3-3.1,5.3-7.4,5.8-12.7c0.1-1.1,0.1-2.4,0.1-4v-4.7V529c-0.1-1.5-0.1-2.8-0.1-4c-0.3-5-2.1-9.1-5.4-12.2
		C250.1,509.6,245.6,508,239.9,508"/>
	<path class="st1" d="M343.8,513.7c-0.1-0.4-0.3-0.6-0.8-0.6c-0.5,0-0.8,0.2-0.8,0.6l-12.8,49.6c-1.1,4.1-2.8,7.1-5,8.9
		c-2.2,1.8-5,2.8-8.3,2.8c-3.1,0-5.8-0.9-8.3-2.8c-2.4-1.9-4.1-4.7-5.2-8.6l-15.7-59.2c-0.3-1.5-0.5-2.9-0.3-4.2
		c0.2-1.3,0.6-2.4,1.3-3.4c0.8-0.9,1.6-1.7,2.7-2.3c1-0.6,2.3-0.9,3.7-0.9c1.7,0,3.3,0.5,4.8,1.6c1.5,1,2.6,2.7,3.2,5l13.8,56.3
		c0.1,0.4,0.3,0.6,0.8,0.6c0.3,0,0.6-0.2,0.7-0.6l12.9-51.7c0.9-3.6,2.5-6.4,4.8-8.3c2.3-1.9,5-2.9,8-2.9c3.1,0,5.7,1,8,2.9
		c2.2,2,3.8,4.7,4.7,8.3l12.8,51.7c0.2,0.4,0.4,0.6,0.8,0.6c0.4,0,0.7-0.2,0.8-0.6l13.8-56.2c0.5-2,1.5-3.6,2.8-4.9
		c1.5-1.2,3.1-1.9,5-1.9c2.9,0,5,1.1,6.5,3.2c1.5,2.1,1.8,4.7,1,7.6l-15.9,59c-1.1,4-2.8,6.9-5.1,8.8c-2.4,1.8-5.1,2.8-8.4,2.8
		c-3.2,0-6-0.9-8.4-2.8c-2.4-1.9-4.1-4.8-5-8.8L343.8,513.7"/>
	<path class="st1" d="M478.8,530.5c0,2.8-0.8,5.1-2.3,6.9c-1.6,1.8-4,2.7-7.3,2.7h-42.4v1.8c0,6,1.8,10.6,5.5,13.8
		c3.7,3.2,8.4,4.8,14.3,4.8c2.7,0,5.6-0.3,8.5-1c3-0.6,5.9-1.5,8.8-2.6c1.5-0.6,3-0.8,4.4-0.7c1.4,0.2,2.5,0.6,3.5,1.2
		c0.9,0.7,1.6,1.5,2.1,2.5c0.5,1,0.8,2,0.8,3.1c0,1.2-0.3,2.4-0.8,3.5c-0.5,1.2-1.6,2.2-3.3,3.2c-1.3,0.8-2.8,1.5-4.7,2.2
		c-1.8,0.7-3.9,1.2-6,1.6c-2.1,0.5-4.4,0.8-6.8,1c-2.3,0.3-4.6,0.4-6.8,0.4c-5.2,0-9.9-0.8-14-2.4c-4.2-1.6-7.7-3.8-10.7-6.7
		c-3-2.8-5.4-6.2-7.2-10.2c-1.7-3.9-2.7-8.3-3-13c-0.2-1.4-0.2-3-0.3-4.6c-0.1-1.7-0.1-3.4-0.1-5c0-1.6,0-3.2,0.1-4.8
		c0.1-1.5,0.1-2.9,0.3-4.1c0.3-4.8,1.5-9.1,3.3-13c1.8-3.9,4.2-7.2,7.2-10c3-2.7,6.5-4.8,10.6-6.3c4-1.4,8.4-2.2,13.1-2.2
		c5,0,9.5,0.8,13.6,2.4c4.1,1.6,7.6,3.9,10.5,6.8c2.9,3,5.1,6.5,6.8,10.6c1.5,4.1,2.4,8.7,2.4,13.7V530.5 M461.5,527.5
		c1,0,1.6-0.6,1.8-1.8c0.4-5.7-1-10.3-4.3-13.7c-3.3-3.4-7.7-5.2-13.5-5.2c-6.4,0-11.2,1.9-14.3,5.6c-3.2,3.7-4.6,8.8-4.4,15.1
		H461.5z"/>
	<path class="st1" d="M535.7,494.4c2.3,0.7,3.9,1.7,4.8,2.9c0.9,1.3,1.4,2.8,1.4,4.6c0,1.7-0.6,3.4-1.8,5c-1.2,1.7-3.1,2.5-5.7,2.5
		c-1.4,0-3-0.2-4.8-0.7c-1.8-0.5-3.9-0.7-6.4-0.6c-3.5,0.1-6.1,1.1-7.8,2.9c-1.7,1.8-2.6,4.9-2.6,9.1v46.1c0,2.3-0.8,4.2-2.3,5.7
		c-1.5,1.5-3.5,2.3-5.7,2.3c-2.1,0-3.9-0.8-5.5-2.3c-1.5-1.5-2.3-3.4-2.3-5.7v-48.7c0-7.6,2.1-13.6,6.4-18.1
		c4.3-4.4,10.5-6.7,18.7-6.7c2.6,0,5.1,0.2,7.5,0.5C532.1,493.5,534,493.9,535.7,494.4"/>
</g>
</svg>
